<?xml version="1.0" encoding="UTF-8" standalone="no"?>
<!DOCTYPE svg PUBLIC "-//W3C//DTD SVG 1.1//EN" "http://www.w3.org/Graphics/SVG/1.1/DTD/svg11.dtd">
<svg width="100%" height="100%" viewBox="0 0 1827 982" version="1.1" xmlns="http://www.w3.org/2000/svg" xmlns:xlink="http://www.w3.org/1999/xlink" xml:space="preserve" xmlns:serif="http://www.serif.com/" style="fill-rule:evenodd;clip-rule:evenodd;stroke-linecap:round;stroke-linejoin:round;stroke-miterlimit:1.5;">
    <g transform="matrix(1,0,0,1,-3901,0)">
        <g id="decision-tree" transform="matrix(0.891687,0,0,0.638991,3901.44,0)">
            <rect x="0" y="0" width="2048" height="1536" style="fill:none;"/>
            <g transform="matrix(5.61907e-17,-1.28056,0.917664,7.8412e-17,-984.051,1445.63)">
                <text x="565.816px" y="1196.17px" style="font-family:'ArialMT', 'Arial', sans-serif;font-size:72px;">X2</text>
            </g>
            <g transform="matrix(5.61907e-17,-1.28056,0.917664,7.8412e-17,-27.7882,1445.63)">
                <text x="565.816px" y="1196.17px" style="font-family:'ArialMT', 'Arial', sans-serif;font-size:72px;">X2</text>
            </g>
            <g transform="matrix(1.29865,0,0,1.81222,-593.619,-315.59)">
                <g transform="matrix(1,0,0,1,-32.0226,123.237)">
                    <circle cx="655.08" cy="370.494" r="15.603" style="fill:rgb(255,135,103);"/>
                </g>
                <g transform="matrix(1,0,0,1,-31.0164,61.2765)">
                    <circle cx="655.08" cy="370.494" r="15.603" style="fill:rgb(255,135,103);"/>
                </g>
                <g transform="matrix(1,0,0,1,23.5335,110.604)">
                    <circle cx="655.08" cy="370.494" r="15.603" style="fill:rgb(255,135,103);"/>
                </g>
                <g transform="matrix(1,0,0,1,79.4874,93.1274)">
                    <circle cx="655.08" cy="370.494" r="15.603" style="fill:rgb(255,135,103);fill-opacity:0.25;"/>
                </g>
                <g transform="matrix(1,0,0,1,825.106,93.1274)">
                    <circle cx="655.08" cy="370.494" r="15.603" style="fill:rgb(128,128,128);"/>
                </g>
                <g transform="matrix(1,0,0,1,56.7636,142.466)">
                    <circle cx="655.08" cy="370.494" r="15.603" style="fill:rgb(255,135,103);"/>
                </g>
                <g transform="matrix(1,0,0,1,112.855,121.066)">
                    <circle cx="655.08" cy="370.494" r="15.603" style="fill:rgb(255,135,103);"/>
                </g>
                <g transform="matrix(1,0,0,1,390.31,99.3406)">
                    <circle cx="655.08" cy="370.494" r="15.603" style="fill:rgb(255,135,103);"/>
                </g>
                <g transform="matrix(1,0,0,1,462.732,82.8544)">
                    <circle cx="655.08" cy="370.494" r="15.603" style="fill:rgb(255,135,103);fill-opacity:0.25;"/>
                </g>
                <g transform="matrix(1,0,0,1,1208.35,82.8544)">
                    <circle cx="655.08" cy="370.494" r="15.603" style="fill:rgb(128,128,128);"/>
                </g>
                <g transform="matrix(1,0,0,1,414.972,130.697)">
                    <circle cx="655.08" cy="370.494" r="15.603" style="fill:rgb(255,135,103);fill-opacity:0.25;"/>
                </g>
                <g transform="matrix(1,0,0,1,1160.59,130.697)">
                    <circle cx="655.08" cy="370.494" r="15.603" style="fill:rgb(128,128,128);"/>
                </g>
                <g transform="matrix(1,0,0,1,422.632,93.5759)">
                    <circle cx="655.08" cy="370.494" r="15.603" style="fill:rgb(255,135,103);"/>
                </g>
                <g transform="matrix(1,0,0,1,471.909,121.463)">
                    <circle cx="655.08" cy="370.494" r="15.603" style="fill:rgb(255,135,103);"/>
                </g>
                <g transform="matrix(1,0,0,1,518.88,86.4328)">
                    <circle cx="655.08" cy="370.494" r="15.603" style="fill:rgb(255,134,103);"/>
                </g>
                <g transform="matrix(1,0,0,1,377.214,60.9126)">
                    <circle cx="655.08" cy="370.494" r="15.603" style="fill:rgb(255,135,103);"/>
                </g>
                <g transform="matrix(1,0,0,1,457.856,-28.5463)">
                    <circle cx="655.08" cy="370.494" r="15.603" style="fill:rgb(255,135,103);"/>
                </g>
                <g transform="matrix(1,0,0,1,419.43,8.29573)">
                    <circle cx="655.08" cy="370.494" r="15.603" style="fill:rgb(255,135,103);"/>
                </g>
                <g transform="matrix(1,0,0,1,486.057,42.3833)">
                    <circle cx="655.08" cy="370.494" r="15.603" style="fill:rgb(255,135,103);"/>
                </g>
                <g transform="matrix(1,0,0,1,449.218,44.0352)">
                    <circle cx="655.08" cy="370.494" r="15.603" style="fill:rgb(255,135,103);fill-opacity:0.25;"/>
                </g>
                <g transform="matrix(1,0,0,1,1194.84,44.0352)">
                    <circle cx="655.08" cy="370.494" r="15.603" style="fill:rgb(128,128,128);"/>
                </g>
                <g transform="matrix(1,0,0,1,34.209,233.933)">
                    <circle cx="655.08" cy="370.494" r="15.603" style="fill:rgb(0,171,218);"/>
                </g>
                <g transform="matrix(1,0,0,1,88.9515,212.127)">
                    <circle cx="655.08" cy="370.494" r="15.603" style="fill:rgb(0,171,218);"/>
                </g>
                <g transform="matrix(1,0,0,1,144.027,221.011)">
                    <circle cx="655.08" cy="370.494" r="15.603" style="fill:rgb(0,171,218);fill-opacity:0.25;"/>
                </g>
                <g transform="matrix(1,0,0,1,889.645,221.011)">
                    <circle cx="655.08" cy="370.494" r="15.603" style="fill:rgb(128,128,128);"/>
                </g>
                <g transform="matrix(1,0,0,1,161.675,168.536)">
                    <circle cx="655.08" cy="370.494" r="15.603" style="fill:rgb(0,171,218);"/>
                </g>
                <g transform="matrix(1,0,0,1,172.359,125.653)">
                    <circle cx="655.08" cy="370.494" r="15.603" style="fill:rgb(0,171,218);"/>
                </g>
                <g transform="matrix(1,0,0,1,159.746,71.4138)">
                    <circle cx="655.08" cy="370.494" r="15.603" style="fill:rgb(0,171,218);fill-opacity:0.25;"/>
                </g>
                <g transform="matrix(1,0,0,1,905.365,71.4138)">
                    <circle cx="655.08" cy="370.494" r="15.603" style="fill:rgb(128,128,128);"/>
                </g>
                <g transform="matrix(1,0,0,1,210.857,39.8404)">
                    <circle cx="655.08" cy="370.494" r="15.603" style="fill:rgb(0,171,218);"/>
                </g>
                <g transform="matrix(1,0,0,1,257.716,70.6418)">
                    <circle cx="655.08" cy="370.494" r="15.603" style="fill:rgb(0,171,218);"/>
                </g>
                <g transform="matrix(1,0,0,1,258.854,19.043)">
                    <circle cx="655.08" cy="370.494" r="15.603" style="fill:rgb(0,171,218);"/>
                </g>
                <g transform="matrix(1,0,0,1,294.825,48.654)">
                    <circle cx="655.08" cy="370.494" r="15.603" style="fill:rgb(0,171,218);"/>
                </g>
                <g transform="matrix(1,0,0,1,359.692,131.176)">
                    <circle cx="655.08" cy="370.494" r="15.603" style="fill:rgb(0,171,218);"/>
                </g>
                <g transform="matrix(1,0,0,1,301.904,126.407)">
                    <circle cx="655.08" cy="370.494" r="15.603" style="fill:rgb(0,171,218);"/>
                </g>
                <g transform="matrix(1,0,0,1,306.15,18.4419)">
                    <circle cx="655.08" cy="370.494" r="15.603" style="fill:rgb(0,171,218);"/>
                </g>
                <g transform="matrix(1,0,0,1,324.087,87.7626)">
                    <circle cx="655.08" cy="370.494" r="15.603" style="fill:rgb(0,171,218);fill-opacity:0.25;"/>
                </g>
                <g transform="matrix(1,0,0,1,1069.71,87.7626)">
                    <circle cx="655.08" cy="370.494" r="15.603" style="fill:rgb(128,128,128);"/>
                </g>
                <g transform="matrix(1,0,0,1,265.168,134.842)">
                    <circle cx="655.08" cy="370.494" r="15.603" style="fill:rgb(0,171,218);"/>
                </g>
                <g transform="matrix(1,0,0,1,214.09,100.724)">
                    <circle cx="655.08" cy="370.494" r="15.603" style="fill:rgb(0,171,218);"/>
                </g>
                <g transform="matrix(1,0,0,1,213.261,143.345)">
                    <circle cx="655.08" cy="370.494" r="15.603" style="fill:rgb(0,171,218);fill-opacity:0.25;"/>
                </g>
                <g transform="matrix(1,0,0,1,958.88,143.345)">
                    <circle cx="655.08" cy="370.494" r="15.603" style="fill:rgb(128,128,128);"/>
                </g>
                <g transform="matrix(1,0,0,1,317.717,154.409)">
                    <circle cx="655.08" cy="370.494" r="15.603" style="fill:rgb(0,171,218);"/>
                </g>
                <g transform="matrix(1,0,0,1,369.156,184.076)">
                    <circle cx="655.08" cy="370.494" r="15.603" style="fill:rgb(0,171,218);"/>
                </g>
                <g transform="matrix(1,0,0,1,362.602,220.878)">
                    <circle cx="655.08" cy="370.494" r="15.603" style="fill:rgb(0,171,218);"/>
                </g>
                <g transform="matrix(1,0,0,1,444.422,242.095)">
                    <circle cx="655.08" cy="370.494" r="15.603" style="fill:rgb(0,171,218);"/>
                </g>
                <g transform="matrix(1,0,0,1,408.739,210.686)">
                    <circle cx="655.08" cy="370.494" r="15.603" style="fill:rgb(0,171,218);fill-opacity:0.25;"/>
                </g>
                <g transform="matrix(1,0,0,1,1154.36,210.686)">
                    <circle cx="655.08" cy="370.494" r="15.603" style="fill:rgb(128,128,128);"/>
                </g>
                <g transform="matrix(1,0,0,1,453.211,177.057)">
                    <circle cx="655.08" cy="370.494" r="15.603" style="fill:rgb(0,171,218);"/>
                </g>
                <g transform="matrix(1,0,0,1,399.767,272.61)">
                    <circle cx="655.08" cy="370.494" r="15.603" style="fill:rgb(0,171,218);"/>
                </g>
                <g transform="matrix(1,0,0,1,453.448,307.736)">
                    <circle cx="655.08" cy="370.494" r="15.603" style="fill:rgb(0,171,218);"/>
                </g>
                <g transform="matrix(1,0,0,1,485.744,255.887)">
                    <circle cx="655.08" cy="370.494" r="15.603" style="fill:rgb(0,171,218);"/>
                </g>
                <g transform="matrix(1,0,0,1,484.651,213.249)">
                    <circle cx="655.08" cy="370.494" r="15.603" style="fill:rgb(0,171,218);"/>
                </g>
                <g transform="matrix(1,0,0,1,510.954,174.653)">
                    <circle cx="655.08" cy="370.494" r="15.603" style="fill:rgb(0,171,218);"/>
                </g>
                <g transform="matrix(1,0,0,1,186.248,218.483)">
                    <circle cx="655.08" cy="370.494" r="15.603" style="fill:rgb(0,171,218);"/>
                </g>
                <g transform="matrix(1,0,0,1,127.699,262.15)">
                    <circle cx="655.08" cy="370.494" r="15.603" style="fill:rgb(0,171,218);"/>
                </g>
                <g transform="matrix(1,0,0,1,172.762,273.214)">
                    <circle cx="655.08" cy="370.494" r="15.603" style="fill:rgb(0,171,218);"/>
                </g>
                <g transform="matrix(1,0,0,1,113.764,308.144)">
                    <circle cx="655.08" cy="370.494" r="15.603" style="fill:rgb(0,171,218);"/>
                </g>
                <g transform="matrix(1,0,0,1,14.7899,292.617)">
                    <circle cx="655.08" cy="370.494" r="15.603" style="fill:rgb(0,171,218);"/>
                </g>
                <g transform="matrix(1,0,0,1,75.9981,267.782)">
                    <circle cx="655.08" cy="370.494" r="15.603" style="fill:rgb(0,171,218);"/>
                </g>
                <g transform="matrix(1,0,0,1,208.382,310.747)">
                    <circle cx="655.08" cy="370.494" r="15.603" style="fill:rgb(0,171,218);"/>
                </g>
                <g transform="matrix(1,0,0,1,219.158,261.648)">
                    <circle cx="655.08" cy="370.494" r="15.603" style="fill:rgb(0,171,218);"/>
                </g>
                <g transform="matrix(1,0,0,1,212.375,181.328)">
                    <circle cx="655.08" cy="370.494" r="15.603" style="fill:rgb(0,171,218);"/>
                </g>
                <g transform="matrix(1,0,0,1,124.423,177.72)">
                    <circle cx="655.08" cy="370.494" r="15.603" style="fill:rgb(0,171,218);"/>
                </g>
                <g transform="matrix(1,0,0,1,104.103,242.217)">
                    <circle cx="655.08" cy="370.494" r="15.603" style="fill:rgb(0,171,218);fill-opacity:0.25;"/>
                </g>
                <g transform="matrix(1,0,0,1,849.722,242.217)">
                    <circle cx="655.08" cy="370.494" r="15.603" style="fill:rgb(128,128,128);"/>
                </g>
                <g transform="matrix(1,0,0,1,51.8416,194.715)">
                    <circle cx="655.08" cy="370.494" r="15.603" style="fill:rgb(0,171,218);fill-opacity:0.25;"/>
                </g>
                <g transform="matrix(1,0,0,1,797.46,194.715)">
                    <circle cx="655.08" cy="370.494" r="15.603" style="fill:rgb(128,128,128);"/>
                </g>
                <g transform="matrix(1,0,0,1,-0.280678,218.484)">
                    <circle cx="655.08" cy="370.494" r="15.603" style="fill:rgb(0,171,218);"/>
                </g>
                <g transform="matrix(1,0,0,1,103.031,44.7808)">
                    <circle cx="655.08" cy="370.494" r="15.603" style="fill:rgb(255,135,103);"/>
                </g>
                <g transform="matrix(1,0,0,1,15.504,62.1506)">
                    <circle cx="655.08" cy="370.494" r="15.603" style="fill:rgb(255,135,103);"/>
                </g>
                <g transform="matrix(1,0,0,1,43.7131,20.3732)">
                    <circle cx="655.08" cy="370.494" r="15.603" style="fill:rgb(255,135,103);"/>
                </g>
                <g transform="matrix(1,0,0,1,0.835404,7.75941)">
                    <circle cx="655.08" cy="370.494" r="15.603" style="fill:rgb(255,135,103);fill-opacity:0.25;"/>
                </g>
                <g transform="matrix(1,0,0,1,746.454,7.75941)">
                    <circle cx="655.08" cy="370.494" r="15.603" style="fill:rgb(128,128,128);"/>
                </g>
            </g>
            <g transform="matrix(1.29865,0,0,1.81222,-593.619,-315.59)">
                <path d="M554.636,273.75L554.636,870.715L1244.37,870.715" style="fill:none;stroke:black;stroke-width:3.54px;"/>
            </g>
            <g transform="matrix(1.29865,0,0,1.81222,362.644,-315.59)">
                <path d="M554.636,273.75L554.636,870.715L1244.37,870.715" style="fill:none;stroke:black;stroke-width:3.54px;"/>
            </g>
            <g transform="matrix(0.917664,0,0,1.28056,-74.2915,-199.965)">
                <g transform="matrix(1,0,0,1,0,4.74614)">
                    <rect x="836.958" y="940.833" width="44.583" height="44.583" style="fill:rgb(255,135,103);stroke:black;stroke-width:2.32px;"/>
                </g>
                <g transform="matrix(1,0,0,1,320.57,-215.335)">
                    <text x="565.816px" y="1196.17px" style="font-family:'ArialMT', 'Arial', sans-serif;font-size:48px;">Group 1</text>
                </g>
            </g>
            <g transform="matrix(0.917664,0,0,1.28056,-74.2915,-124.816)">
                <rect x="836.958" y="940.833" width="44.583" height="44.583" style="fill:rgb(0,171,218);stroke:black;stroke-width:2.32px;"/>
            </g>
            <g transform="matrix(0.917664,0,0,1.28056,219.884,-406.644)">
                <text x="565.816px" y="1196.17px" style="font-family:'ArialMT', 'Arial', sans-serif;font-size:48px;">Group 2</text>
            </g>
            <g transform="matrix(0.917664,0,0,1.28056,-74.2915,-199.965)">
                <path d="M310.286,662.747L1130.31,662.747" style="fill:none;stroke:rgb(106,106,106);stroke-width:7.82px;stroke-dasharray:7.82,7.82;"/>
            </g>
            <g transform="matrix(0.917664,0,0,1.28056,-74.2915,-199.965)">
                <path d="M547.44,367.383L547.44,662.747" style="fill:none;stroke:rgb(106,106,106);stroke-width:7.82px;stroke-dasharray:7.82,7.82;"/>
            </g>
            <g transform="matrix(0.917664,0,0,1.28056,-57.0432,-195.049)">
                <path d="M868.878,368.61L868.878,660.126" style="fill:none;stroke:rgb(106,106,106);stroke-width:7.82px;stroke-dasharray:7.82,7.82;"/>
            </g>
            <g transform="matrix(0.917664,0,0,1.28056,39.9815,-170.304)">
                <text x="565.816px" y="1196.17px" style="font-family:'ArialMT', 'Arial', sans-serif;font-size:72px;">X1</text>
            </g>
            <g transform="matrix(0.917664,0,0,1.28056,-84.6702,-1382.12)">
                <text x="565.816px" y="1196.17px" style="font-family:'ArialMT', 'Arial', sans-serif;font-size:72px;">T<tspan x="607.124px 631.101px " y="1196.17px 1196.17px ">ra</tspan>ining set</text>
            </g>
            <g transform="matrix(0.917664,0,0,1.28056,881.775,-1382.12)">
                <text x="565.816px" y="1196.17px" style="font-family:'ArialMT', 'Arial', sans-serif;font-size:72px;">T<tspan x="601.816px 641.859px " y="1196.17px 1196.17px ">es</tspan>t set</text>
            </g>
            <g transform="matrix(0.917664,0,0,1.28056,996.245,-170.304)">
                <text x="565.816px" y="1196.17px" style="font-family:'ArialMT', 'Arial', sans-serif;font-size:72px;">X1</text>
            </g>
        </g>
    </g>
</svg>
